<?xml version="1.0" encoding="UTF-8"?>
<svg xmlns="http://www.w3.org/2000/svg" xmlns:xlink="http://www.w3.org/1999/xlink" viewBox="0 0 26 26" width="26px" height="26px">
    <g id="surface99289297">
        <path style=" stroke:none;fill-rule:nonzero;fill:rgb(80.000001%,80.000001%,80.000001%);fill-opacity:1;" d="M 13 26 C 5.820312 26 0 20.179688 0 13 C 0 5.820312 5.820312 0 13 0 C 20.179688 0 26 5.820312 26 13 C 26 20.179688 20.179688 26 13 26 Z M 13 26 " />
        <path style=" stroke:none;fill-rule:nonzero;fill:rgb(14.509805%,18.431373%,24.313726%);fill-opacity:1;" d="M 9.207031 12.371094 C 9.207031 12.589844 9.230469 12.765625 9.269531 12.894531 C 9.316406 13.019531 9.375 13.160156 9.453125 13.3125 C 9.484375 13.359375 9.496094 13.40625 9.496094 13.449219 C 9.496094 13.507812 9.460938 13.566406 9.386719 13.625 L 9.019531 13.867188 C 8.96875 13.902344 8.917969 13.921875 8.871094 13.921875 C 8.8125 13.921875 8.753906 13.890625 8.695312 13.839844 C 8.617188 13.75 8.546875 13.65625 8.488281 13.566406 C 8.429688 13.464844 8.375 13.355469 8.308594 13.21875 C 7.859375 13.757812 7.292969 14.027344 6.609375 14.027344 C 6.121094 14.027344 5.734375 13.886719 5.453125 13.605469 C 5.167969 13.324219 5.023438 12.949219 5.023438 12.484375 C 5.023438 11.988281 5.199219 11.585938 5.550781 11.28125 C 5.902344 10.976562 6.371094 10.824219 6.96875 10.824219 C 7.164062 10.824219 7.367188 10.84375 7.582031 10.871094 C 7.792969 10.902344 8.015625 10.949219 8.246094 11 L 8.246094 10.574219 C 8.246094 10.128906 8.152344 9.820312 7.972656 9.640625 C 7.789062 9.457031 7.476562 9.371094 7.03125 9.371094 C 6.828125 9.371094 6.621094 9.394531 6.40625 9.445312 C 6.191406 9.5 5.984375 9.5625 5.78125 9.644531 C 5.691406 9.6875 5.621094 9.710938 5.578125 9.722656 C 5.539062 9.734375 5.511719 9.738281 5.488281 9.738281 C 5.40625 9.738281 5.367188 9.679688 5.367188 9.558594 L 5.367188 9.269531 C 5.367188 9.175781 5.378906 9.109375 5.40625 9.066406 C 5.433594 9.027344 5.488281 8.984375 5.566406 8.945312 C 5.769531 8.839844 6.011719 8.75 6.296875 8.679688 C 6.582031 8.605469 6.882812 8.570312 7.199219 8.570312 C 7.886719 8.570312 8.390625 8.726562 8.714844 9.042969 C 9.03125 9.359375 9.195312 9.835938 9.195312 10.480469 L 9.195312 12.371094 Z M 6.855469 13.261719 C 7.046875 13.261719 7.246094 13.226562 7.453125 13.15625 C 7.660156 13.085938 7.847656 12.957031 8.003906 12.78125 C 8.09375 12.671875 8.164062 12.546875 8.199219 12.40625 C 8.234375 12.265625 8.257812 12.097656 8.257812 11.898438 L 8.257812 11.652344 C 8.089844 11.613281 7.910156 11.578125 7.726562 11.554688 C 7.539062 11.53125 7.359375 11.519531 7.179688 11.519531 C 6.792969 11.519531 6.511719 11.597656 6.320312 11.753906 C 6.128906 11.910156 6.035156 12.132812 6.035156 12.425781 C 6.035156 12.699219 6.105469 12.902344 6.25 13.042969 C 6.390625 13.191406 6.589844 13.261719 6.855469 13.261719 Z M 11.5 13.890625 C 11.398438 13.890625 11.328125 13.875 11.28125 13.832031 C 11.234375 13.796875 11.195312 13.714844 11.160156 13.605469 L 9.800781 9.089844 C 9.765625 8.972656 9.75 8.898438 9.75 8.855469 C 9.75 8.761719 9.796875 8.710938 9.886719 8.710938 L 10.453125 8.710938 C 10.566406 8.710938 10.640625 8.726562 10.679688 8.769531 C 10.726562 8.804688 10.761719 8.886719 10.796875 8.996094 L 11.769531 12.863281 L 12.667969 8.996094 C 12.699219 8.878906 12.734375 8.804688 12.78125 8.769531 C 12.824219 8.734375 12.90625 8.710938 13.011719 8.710938 L 13.472656 8.710938 C 13.582031 8.710938 13.660156 8.726562 13.707031 8.769531 C 13.75 8.804688 13.792969 8.886719 13.816406 8.996094 L 14.730469 12.910156 L 15.730469 8.996094 C 15.765625 8.878906 15.804688 8.804688 15.84375 8.769531 C 15.890625 8.734375 15.964844 8.710938 16.070312 8.710938 L 16.609375 8.710938 C 16.699219 8.710938 16.753906 8.757812 16.753906 8.855469 C 16.753906 8.886719 16.746094 8.914062 16.742188 8.949219 C 16.734375 8.984375 16.722656 9.03125 16.699219 9.097656 L 15.308594 13.609375 C 15.273438 13.726562 15.230469 13.804688 15.1875 13.839844 C 15.140625 13.875 15.066406 13.898438 14.964844 13.898438 L 14.46875 13.898438 C 14.359375 13.898438 14.285156 13.878906 14.238281 13.839844 C 14.191406 13.796875 14.152344 13.722656 14.128906 13.605469 L 13.230469 9.835938 L 12.339844 13.601562 C 12.3125 13.714844 12.277344 13.792969 12.230469 13.832031 C 12.183594 13.875 12.105469 13.890625 12 13.890625 Z M 18.933594 14.050781 C 18.632812 14.050781 18.332031 14.015625 18.042969 13.945312 C 17.753906 13.875 17.527344 13.796875 17.378906 13.710938 C 17.285156 13.65625 17.222656 13.601562 17.199219 13.546875 C 17.175781 13.496094 17.164062 13.4375 17.164062 13.382812 L 17.164062 13.085938 C 17.164062 12.964844 17.210938 12.90625 17.296875 12.90625 C 17.332031 12.90625 17.367188 12.910156 17.402344 12.921875 C 17.4375 12.933594 17.488281 12.957031 17.546875 12.980469 C 17.742188 13.066406 17.957031 13.136719 18.183594 13.183594 C 18.414062 13.230469 18.636719 13.253906 18.871094 13.253906 C 19.234375 13.253906 19.519531 13.191406 19.714844 13.0625 C 19.910156 12.933594 20.015625 12.746094 20.015625 12.507812 C 20.015625 12.34375 19.964844 12.210938 19.859375 12.097656 C 19.753906 11.988281 19.558594 11.886719 19.273438 11.792969 L 18.4375 11.53125 C 18.015625 11.398438 17.703125 11.199219 17.511719 10.933594 C 17.320312 10.679688 17.222656 10.390625 17.222656 10.089844 C 17.222656 9.84375 17.273438 9.625 17.378906 9.441406 C 17.480469 9.253906 17.621094 9.089844 17.792969 8.960938 C 17.96875 8.828125 18.164062 8.726562 18.394531 8.65625 C 18.628906 8.585938 18.871094 8.558594 19.125 8.558594 C 19.253906 8.558594 19.386719 8.5625 19.511719 8.582031 C 19.644531 8.597656 19.765625 8.621094 19.886719 8.644531 C 20.003906 8.675781 20.113281 8.703125 20.21875 8.738281 C 20.320312 8.773438 20.402344 8.808594 20.460938 8.84375 C 20.542969 8.890625 20.601562 8.9375 20.636719 8.988281 C 20.667969 9.035156 20.6875 9.101562 20.6875 9.183594 L 20.6875 9.457031 C 20.6875 9.582031 20.640625 9.644531 20.554688 9.644531 C 20.507812 9.644531 20.433594 9.621094 20.335938 9.574219 C 20.003906 9.421875 19.632812 9.347656 19.222656 9.347656 C 18.894531 9.347656 18.632812 9.398438 18.453125 9.511719 C 18.273438 9.621094 18.183594 9.789062 18.183594 10.03125 C 18.183594 10.195312 18.242188 10.332031 18.355469 10.445312 C 18.472656 10.554688 18.6875 10.667969 18.992188 10.765625 L 19.8125 11.027344 C 20.230469 11.164062 20.53125 11.351562 20.710938 11.589844 C 20.890625 11.828125 20.976562 12.105469 20.976562 12.40625 C 20.976562 12.660156 20.925781 12.886719 20.824219 13.085938 C 20.722656 13.285156 20.582031 13.460938 20.402344 13.597656 C 20.222656 13.746094 20.011719 13.851562 19.761719 13.925781 C 19.5 14.007812 19.230469 14.050781 18.933594 14.050781 Z M 18.933594 14.050781 " />
        <path style=" stroke:none;fill-rule:nonzero;fill:rgb(100%,60.000002%,0%);fill-opacity:1;" d="M 20.027344 16.886719 C 18.125 18.308594 15.359375 19.0625 12.980469 19.0625 C 9.652344 19.0625 6.648438 17.816406 4.382812 15.75 C 4.203125 15.585938 4.363281 15.363281 4.578125 15.492188 C 7.03125 16.929688 10.054688 17.800781 13.183594 17.800781 C 15.296875 17.800781 17.613281 17.355469 19.75 16.445312 C 20.066406 16.296875 20.339844 16.65625 20.027344 16.886719 Z M 20.820312 15.976562 C 20.578125 15.660156 19.210938 15.824219 18.59375 15.902344 C 18.40625 15.925781 18.378906 15.761719 18.546875 15.636719 C 19.632812 14.867188 21.421875 15.089844 21.628906 15.347656 C 21.835938 15.609375 21.570312 17.414062 20.554688 18.277344 C 20.398438 18.414062 20.246094 18.34375 20.316406 18.167969 C 20.546875 17.589844 21.0625 16.285156 20.820312 15.976562 Z M 20.820312 15.976562 " />
    </g>
</svg>