<?xml version="1.0" encoding="UTF-8"?>
<svg xmlns="http://www.w3.org/2000/svg" xmlns:xlink="http://www.w3.org/1999/xlink" viewBox="0 0 24 24" width="24px" height="24px">
    <g id="surface97447760">
        <path style=" stroke:none;fill-rule:nonzero;fill:rgb(100%,100%,100%);fill-opacity:1;" d="M 21 3.074219 C 20.417969 3.046875 19.820312 3.222656 19.332031 3.585938 L 18.011719 4.558594 L 12 9.003906 L 6.042969 4.601562 C 5.960938 4.519531 5.851562 4.472656 5.734375 4.464844 L 5.855469 4.464844 L 4.671875 3.589844 C 4.179688 3.226562 3.585938 3.050781 3 3.074219 C 2.414062 3.101562 1.839844 3.328125 1.394531 3.765625 C 0.832031 4.324219 0.480469 5.101562 0.480469 5.957031 L 0.480469 7.605469 C 0.472656 7.652344 0.472656 7.699219 0.480469 7.746094 L 0.480469 18.960938 C 0.480469 19.882812 1.238281 20.640625 2.160156 20.640625 L 5.761719 20.640625 C 6.023438 20.640625 6.238281 20.425781 6.238281 20.160156 L 6.238281 12.179688 L 11.714844 16.226562 C 11.882812 16.351562 12.117188 16.351562 12.285156 16.226562 L 17.761719 12.179688 L 17.761719 20.160156 C 17.761719 20.425781 17.976562 20.640625 18.238281 20.640625 L 21.839844 20.640625 C 22.761719 20.640625 23.519531 19.882812 23.519531 18.960938 L 23.519531 7.738281 C 23.527344 7.695312 23.527344 7.652344 23.519531 7.613281 L 23.519531 5.957031 C 23.519531 5.113281 23.179688 4.335938 22.621094 3.777344 C 22.605469 3.761719 22.601562 3.757812 22.605469 3.765625 C 22.605469 3.765625 22.605469 3.761719 22.605469 3.761719 C 22.160156 3.324219 21.585938 3.097656 21 3.074219 Z M 20.949219 4.03125 C 21.3125 4.046875 21.664062 4.183594 21.929688 4.445312 C 21.941406 4.457031 21.945312 4.460938 21.941406 4.457031 C 22.324219 4.839844 22.558594 5.371094 22.558594 5.957031 L 22.558594 7.4375 L 18.71875 10.277344 L 18.71875 5.28125 C 18.71875 5.265625 18.71875 5.246094 18.71875 5.230469 L 19.898438 4.359375 C 19.902344 4.359375 19.902344 4.359375 19.902344 4.359375 C 20.210938 4.128906 20.585938 4.019531 20.949219 4.03125 Z M 3.050781 4.035156 C 3.414062 4.019531 3.789062 4.128906 4.101562 4.359375 L 5.28125 5.234375 C 5.28125 5.25 5.28125 5.265625 5.28125 5.28125 L 5.28125 10.277344 L 1.441406 7.4375 L 1.441406 5.957031 C 1.441406 5.363281 1.679688 4.832031 2.070312 4.449219 C 2.335938 4.1875 2.6875 4.050781 3.050781 4.035156 Z M 17.761719 5.9375 L 17.761719 10.984375 L 12 15.242188 L 6.238281 10.984375 L 6.238281 5.9375 L 11.714844 9.984375 C 11.882812 10.109375 12.117188 10.109375 12.285156 9.984375 Z M 1.441406 8.632812 L 5.28125 11.46875 L 5.28125 19.679688 L 2.160156 19.679688 C 1.757812 19.679688 1.441406 19.363281 1.441406 18.960938 Z M 22.558594 8.632812 L 22.558594 18.960938 C 22.558594 19.363281 22.242188 19.679688 21.839844 19.679688 L 18.71875 19.679688 L 18.71875 11.46875 Z M 22.558594 8.632812 " />
    </g>
</svg>